<svg id="about_me" xmlns="http://www.w3.org/2000/svg" viewBox="0 0 32 64">
  <path fill="#adadad" d="M22.3 13.4a1.868 1.868 0 0 0-1.9 1.7h3.8a1.8 1.8 0 0 0-1.9-1.7z"/>
  <path fill="#adadad" d="M16 0a16 16 0 1 0 16 16A16 16 0 0 0 16 0zm1 19.5h-1.9v-4.7c0-.8-.4-1.3-1.1-1.3a1.96 1.96 0 0 0-1.4.8v5.1h-1.9v-4.7c0-.8-.3-1.3-1.1-1.3a1.96 1.96 0 0 0-1.4.8v5.1H6.3V12h1.9v1a2.853 2.853 0 0 1 2.2-1 1.881 1.881 0 0 1 2 1.3 2.872 2.872 0 0 1 2.4-1.3c1.4 0 2.2.8 2.2 2.4zm9-3.2h-5.6a2.075 2.075 0 0 0 2.1 1.6 3.057 3.057 0 0 0 2-.7l1 1.1a4.524 4.524 0 0 1-3.1 1.2 3.8 3.8 0 1 1-.1-7.6 3.654 3.654 0 0 1 3.7 3.8z"/>
  <path fill="#333" d="M22.3 45.4a1.868 1.868 0 0 0-1.9 1.7h3.8a1.8 1.8 0 0 0-1.9-1.7z"/>
  <path fill="#333" d="M16 32a16 16 0 1 0 16 16 16 16 0 0 0-16-16zm1 19.5h-1.9v-4.7c0-.8-.4-1.3-1.1-1.3a1.96 1.96 0 0 0-1.4.8v5.1h-1.9v-4.7c0-.8-.3-1.3-1.1-1.3a1.96 1.96 0 0 0-1.4.8v5.1H6.3V44h1.9v1a2.853 2.853 0 0 1 2.2-1 1.881 1.881 0 0 1 2 1.3 2.872 2.872 0 0 1 2.4-1.3c1.4 0 2.2.8 2.2 2.4zm9-3.2h-5.6a2.075 2.075 0 0 0 2.1 1.6 3.057 3.057 0 0 0 2-.7l1 1.1a4.524 4.524 0 0 1-3.1 1.2 3.8 3.8 0 1 1-.1-7.6 3.654 3.654 0 0 1 3.7 3.8z"/>
</svg>
