<svg xmlns="http://www.w3.org/2000/svg" viewBox="0 0 32 64">
  <path d="M16 0a16 16 0 1 0 16 16A16 16 0 0 0 16 0zm3.823 16h-2.454v8.9H13.69V16h-1.838v-3.069h1.838v-1.842c0-2.5 1.037-3.992 3.986-3.992h2.455v3.069H18.6c-1.148 0-1.224.429-1.224 1.229v1.536h2.779z" fill="#adadad"/>
  <path d="M16 32a16 16 0 1 0 16 16 16 16 0 0 0-16-16zm3.823 16h-2.454v8.9H13.69V48h-1.838v-3.069h1.838v-1.842c0-2.5 1.037-3.992 3.986-3.992h2.455v3.069H18.6c-1.148 0-1.224.429-1.224 1.229v1.536h2.779z" fill="#333"/>
</svg>
