<svg id="fourssquare" xmlns="http://www.w3.org/2000/svg" viewBox="0 0 32 64">
  <path fill="#adadad" d="M19.4 9.8h-6.8a.536.536 0 0 0-.5.5v10.5s2.5-3.1 2.8-3.4.4-.4.8-.4H18c.3 0 .4-.3.5-.4a8.025 8.025 0 0 0 .4-1.8.56.56 0 0 0-.5-.6h-2.8a.576.576 0 0 1-.6-.6v-.4a.576.576 0 0 1 .6-.6h3.3c.2 0 .5-.2.5-.4l.4-1.9c.1-.3-.1-.5-.4-.5z"/>
  <path fill="#adadad" d="M16 0a16 16 0 1 0 16 16A16 16 0 0 0 16 0zm5.6 10.1c-.3 1.7-1.4 7.2-1.5 7.6a1.331 1.331 0 0 1-1.4 1.2h-2.6c-.1 0-.1 0-.2.1-.1 0-4.1 4.7-4.1 4.7a.987.987 0 0 1-1 .2c-.2 0-.5-.3-.5-.9V9.4A1.441 1.441 0 0 1 11.8 8h8.5c1.3 0 1.6.7 1.3 2.1z"/>
  <path fill="#333" d="M19.4 41.8h-6.8a.536.536 0 0 0-.5.5v10.5s2.5-3.1 2.8-3.4.4-.4.8-.4H18c.3 0 .4-.3.5-.4a8.025 8.025 0 0 0 .4-1.8.56.56 0 0 0-.5-.6h-2.8a.576.576 0 0 1-.6-.6v-.4a.576.576 0 0 1 .6-.6h3.3c.2 0 .5-.2.5-.4l.4-1.9c.1-.3-.1-.5-.4-.5z"/>
  <path fill="#333" d="M16 32a16 16 0 1 0 16 16 16 16 0 0 0-16-16zm5.6 10.1c-.3 1.7-1.4 7.2-1.5 7.6a1.331 1.331 0 0 1-1.4 1.2h-2.6c-.1 0-.1 0-.2.1-.1 0-4.1 4.7-4.1 4.7a.987.987 0 0 1-1 .2c-.2 0-.5-.3-.5-.9V41.4a1.441 1.441 0 0 1 1.5-1.4h8.5c1.3 0 1.6.7 1.3 2.1z"/>
</svg>
