<svg xmlns="http://www.w3.org/2000/svg" viewBox="0 0 32 64">
  <path d="M16 0a16 16 0 1 0 16 16A16 16 0 0 0 16 0zm0 25.4A9.389 9.389 0 0 1 6.6 16a8.849 8.849 0 0 1 2.9-6.7 2 2 0 0 1 2.7 0 2 2 0 0 1 0 2.7 5.281 5.281 0 0 0-1.7 4 5.6 5.6 0 0 0 11.2 0 5.722 5.722 0 0 0-3.8-5.3v4.4A1.839 1.839 0 0 1 16 17a1.9 1.9 0 0 1-1.9-1.9V8.5A1.9 1.9 0 0 1 16 6.6a9.4 9.4 0 0 1 0 18.8z" fill="#adadad"/>
  <path d="M16 32a16 16 0 1 0 16 16 16 16 0 0 0-16-16zm0 25.4A9.389 9.389 0 0 1 6.6 48a8.849 8.849 0 0 1 2.9-6.7 2 2 0 0 1 2.7 0 2 2 0 0 1 0 2.7 5.281 5.281 0 0 0-1.7 4 5.6 5.6 0 0 0 11.2 0 5.722 5.722 0 0 0-3.8-5.3v4.4A1.839 1.839 0 0 1 16 49a1.9 1.9 0 0 1-1.9-1.9v-6.6a1.9 1.9 0 0 1 1.9-1.9 9.4 9.4 0 0 1 0 18.8z" fill="#333"/>
</svg>
