<svg enable-background="new 0 0 32 64" viewBox="0 0 32 64" xmlns="http://www.w3.org/2000/svg"><g fill="#adadad"><path d="m22.2 11.3c-.1-.4-.3-.6-.6-.9s-.5-.5-.9-.6c-.3-.1-.7-.2-1.5-.3-.8 0-1.1 0-3.2 0s-2.4 0-3.2 0-1.2.2-1.5.3c-.4.1-.6.3-.9.6s-.5.5-.6.9c-.1.3-.2.7-.3 1.5v3.2s0 2.4 0 3.2.2 1.2.3 1.5c.1.4.3.6.6.9s.5.5.9.6c.3.1.7.2 1.5.3h3.2s2.4 0 3.2 0 1.2-.2 1.5-.3c.4-.1.6-.3.9-.6s.5-.5.6-.9c.1-.3.2-.7.3-1.5 0-.8 0-1.1 0-3.2s0-2.4 0-3.2-.2-1.2-.3-1.5zm-6.2 8.8c-2.3 0-4.1-1.8-4.1-4.1s1.8-4.1 4.1-4.1 4.1 1.8 4.1 4.1-1.8 4.1-4.1 4.1zm4.3-7.4c-.5 0-1-.4-1-1 0-.5.4-1 1-1s1 .4 1 1c-.1.6-.5 1-1 1z"/><circle cx="16" cy="16" r="2.7"/><path d="m16 0c-8.8 0-16 7.2-16 16s7.2 16 16 16 16-7.2 16-16-7.2-16-16-16zm8 19.3c0 .9-.2 1.4-.4 1.9s-.5 1-.9 1.4-.9.7-1.4.9-1.1.3-1.9.4c-.9 0-1.1 0-3.3 0s-2.4 0-3.3 0-1.4-.2-1.9-.4-1-.5-1.4-.9-.7-.9-.9-1.4-.3-1.1-.4-1.9c0-.9 0-1.1 0-3.3s0-2.4 0-3.3.2-1.4.4-1.9.5-1 .9-1.4.9-.7 1.4-.9 1.1-.3 1.9-.4h3.3s2.4 0 3.3 0 1.4.2 1.9.4 1 .5 1.4.9.7.9.9 1.4.3 1.1.4 1.9v3.3s0 2.4 0 3.3z"/></g><path d="m16 32c-8.8 0-16 7.2-16 16s7.2 16 16 16 16-7.2 16-16-7.2-16-16-16zm8 19.3c0 .9-.2 1.4-.4 1.9s-.5 1-.9 1.4-.9.7-1.4.9-1.1.3-1.9.4c-.9 0-1.1 0-3.3 0s-2.4 0-3.3 0-1.4-.2-1.9-.4-1-.5-1.4-.9-.7-.9-.9-1.4-.3-1.1-.4-1.9c0-.9 0-1.1 0-3.3s0-2.4 0-3.3.2-1.4.4-1.9.5-1 .9-1.4.9-.7 1.4-.9 1.1-.3 1.9-.4h3.3s2.4 0 3.3 0 1.4.2 1.9.4 1 .5 1.4.9.7.9.9 1.4.3 1.1.4 1.9v3.3s0 2.4 0 3.3z" fill="#333"/><path d="m22.2 43.3c-.1-.4-.3-.6-.6-.9s-.5-.5-.9-.6c-.3-.1-.7-.2-1.5-.3-.8 0-1.1 0-3.2 0s-2.4 0-3.2 0-1.2.2-1.5.3c-.4.1-.6.3-.9.6s-.5.5-.6.9c-.1.3-.2.7-.3 1.5v3.2s0 2.4 0 3.2.2 1.2.3 1.5c.1.4.3.6.6.9s.5.5.9.6c.3.1.7.2 1.5.3h3.2s2.4 0 3.2 0 1.2-.2 1.5-.3c.4-.1.6-.3.9-.6s.5-.5.6-.9c.1-.3.2-.7.3-1.5 0-.8 0-1.1 0-3.2s0-2.4 0-3.2-.2-1.2-.3-1.5zm-6.2 8.8c-2.3 0-4.1-1.8-4.1-4.1s1.8-4.1 4.1-4.1 4.1 1.8 4.1 4.1-1.8 4.1-4.1 4.1zm4.3-7.4c-.5 0-1-.4-1-1 0-.5.4-1 1-1s1 .4 1 1c-.1.6-.5 1-1 1z" fill="#333"/><circle cx="16" cy="48" fill="#333" r="2.7"/></svg>