<svg xmlns="http://www.w3.org/2000/svg" viewBox="0 0 32 64">
  <path d="M16 0a16 16 0 1 0 16 16A16 16 0 0 0 16 0zm-4.536 22.942H7.907v-10.7h3.557zM9.685 10.777h-.022a1.855 1.855 0 1 1 .045-3.7 1.855 1.855 0 1 1-.023 3.7zm14.609 12.165h-3.557v-5.726c0-1.439-.515-2.42-1.8-2.42a1.947 1.947 0 0 0-1.825 1.3 2.432 2.432 0 0 0-.117.867v5.978h-3.561s.047-9.7 0-10.7h3.558v1.517a3.529 3.529 0 0 1 3.208-1.771c2.341 0 4.1 1.53 4.1 4.818z" fill="#adadad"/>
  <path d="M16 32a16 16 0 1 0 16 16 16 16 0 0 0-16-16zm-4.536 22.942H7.907v-10.7h3.557zM9.685 42.777h-.022a1.855 1.855 0 1 1 .045-3.7 1.855 1.855 0 1 1-.023 3.7zm14.609 12.165h-3.557v-5.726c0-1.439-.515-2.42-1.8-2.42a1.947 1.947 0 0 0-1.825 1.3 2.432 2.432 0 0 0-.117.867v5.978h-3.561s.047-9.7 0-10.7h3.558v1.517a3.529 3.529 0 0 1 3.208-1.771c2.341 0 4.1 1.53 4.1 4.818z" fill="#333"/>
</svg>
