<svg xmlns="http://www.w3.org/2000/svg" viewBox="0 0 32 64">
  <path d="M16 0a16 16 0 1 0 16 16A16 16 0 0 0 16 0zm1.6 20.6a3.4 3.4 0 0 1-2.9-1.481s-.69 2.736-.835 3.264a12.67 12.67 0 0 1-2.144 3.886.158.158 0 0 1-.282-.068 13.316 13.316 0 0 1 .036-4.513C11.7 20.728 13 15.221 13 15.221a4.565 4.565 0 0 1-.379-1.879c0-1.76 1.02-3.074 2.29-3.074a1.589 1.589 0 0 1 1.6 1.782 25.457 25.457 0 0 1-1.048 4.214 1.838 1.838 0 0 0 1.874 2.288c2.25 0 3.765-2.89 3.765-6.314 0-2.6-1.752-4.551-4.941-4.551a5.623 5.623 0 0 0-5.846 5.687A3.425 3.425 0 0 0 11.1 15.7a.576.576 0 0 1 .17.662c-.058.219-.187.744-.243.953a.409.409 0 0 1-.594.3C8.775 16.938 8 15.12 8 13.078c0-3.373 2.847-7.418 8.489-7.418 4.535 0 7.518 3.283 7.518 6.8 0 4.663-2.59 8.14-6.407 8.14z" fill="#adadad"/>
  <path d="M16 32a16 16 0 1 0 16 16 16 16 0 0 0-16-16zm1.6 20.6a3.4 3.4 0 0 1-2.9-1.481s-.69 2.736-.835 3.264a12.67 12.67 0 0 1-2.144 3.886.158.158 0 0 1-.282-.068 13.316 13.316 0 0 1 .036-4.513C11.7 52.728 13 47.221 13 47.221a4.565 4.565 0 0 1-.379-1.879c0-1.76 1.02-3.074 2.29-3.074a1.589 1.589 0 0 1 1.6 1.782 25.457 25.457 0 0 1-1.048 4.214 1.838 1.838 0 0 0 1.874 2.288c2.25 0 3.765-2.89 3.765-6.314 0-2.6-1.752-4.551-4.941-4.551a5.623 5.623 0 0 0-5.846 5.687A3.425 3.425 0 0 0 11.1 47.7a.576.576 0 0 1 .17.662c-.058.219-.187.744-.243.953a.409.409 0 0 1-.594.3C8.775 48.938 8 47.12 8 45.078c0-3.373 2.845-7.418 8.487-7.418 4.535 0 7.518 3.283 7.518 6.8.002 4.663-2.588 8.14-6.405 8.14z" fill="#333"/>
</svg>
