<svg xmlns="http://www.w3.org/2000/svg" viewBox="0 0 32 64">
  <path d="M16 0a16 16 0 1 0 16 16A16 16 0 0 0 16 0zm5.147 23.137a7.518 7.518 0 0 1-2.191.888 8.774 8.774 0 0 1-1.986.214 6.785 6.785 0 0 1-2.143-.307 3.686 3.686 0 0 1-1.407-.807 2.82 2.82 0 0 1-.82-1.184 6.905 6.905 0 0 1-.276-2.114v-6.065h-2.2v-2.757a2.966 2.966 0 0 0 1.783-.67 4.819 4.819 0 0 0 1.192-1.518 4.922 4.922 0 0 0 .328-2.217h2.757v4.411h4.411v2.757h-4.411v4.411a8.14 8.14 0 0 0 .206 2.138 1.352 1.352 0 0 0 .606.7 2.556 2.556 0 0 0 1.342.353 4.67 4.67 0 0 0 2.809-.982z" fill="#adadad"/>
  <path d="M16 32a16 16 0 1 0 16 16 16 16 0 0 0-16-16zm5.147 23.137a7.518 7.518 0 0 1-2.191.888 8.774 8.774 0 0 1-1.986.214 6.785 6.785 0 0 1-2.143-.307 3.686 3.686 0 0 1-1.407-.807 2.82 2.82 0 0 1-.82-1.184 6.905 6.905 0 0 1-.276-2.114v-6.065h-2.2v-2.757a2.966 2.966 0 0 0 1.783-.67 4.819 4.819 0 0 0 1.192-1.518 4.922 4.922 0 0 0 .333-2.222h2.757v4.411H20.6v2.757h-4.416v4.411a8.14 8.14 0 0 0 .206 2.138 1.352 1.352 0 0 0 .606.7 2.556 2.556 0 0 0 1.342.353 4.67 4.67 0 0 0 2.809-.982z" fill="#333"/>
</svg>
