<svg xmlns="http://www.w3.org/2000/svg" viewBox="0 0 32 64">
  <path d="M16 0a16 16 0 1 0 16 16A16 16 0 0 0 16 0zm8.74 10.675a8.554 8.554 0 0 1-.891.99c-.712.707-.75.784-.75 1.376a13.26 13.26 0 0 1-.865 3.858A11.18 11.18 0 0 1 18 21.891a10.736 10.736 0 0 1-8.346.952A9.751 9.751 0 0 1 7.2 21.711a3.752 3.752 0 0 1 1.044-.1 7.122 7.122 0 0 0 3.41-.951l.687-.412-.789-.27a3.846 3.846 0 0 1-2.379-2.11c-.077-.271-.051-.284.661-.284l.739-.011-.624-.3A4.113 4.113 0 0 1 8.2 15.627a4.616 4.616 0 0 1-.456-1.727 1.483 1.483 0 0 1 .6.141c.877.321.992.244.483-.3a3.718 3.718 0 0 1-.791-3.801l.215-.617.84.836a10.345 10.345 0 0 0 6.056 2.984l.636.077-.038-.63a3.684 3.684 0 0 1 2.481-3.7 4.345 4.345 0 0 1 2.228-.052 5.19 5.19 0 0 1 1.081.566l.623.426.687-.219a6.976 6.976 0 0 0 1.12-.437c.216-.115.407-.179.407-.141a3.756 3.756 0 0 1-.865 1.376c-.535.579-.382.63.7.244.647-.223.661-.223.533.022z" fill="#adadad"/>
  <path d="M16 32a16 16 0 1 0 16 16 16 16 0 0 0-16-16zm8.74 10.675a8.554 8.554 0 0 1-.891.99c-.712.707-.75.784-.75 1.376a13.26 13.26 0 0 1-.865 3.858A11.18 11.18 0 0 1 18 53.891a10.736 10.736 0 0 1-8.346.952A9.751 9.751 0 0 1 7.2 53.711a3.752 3.752 0 0 1 1.044-.1 7.122 7.122 0 0 0 3.41-.951l.687-.412-.789-.27a3.846 3.846 0 0 1-2.379-2.11c-.077-.271-.051-.284.661-.284l.739-.011-.624-.3A4.113 4.113 0 0 1 8.2 47.627a4.616 4.616 0 0 1-.456-1.727 1.483 1.483 0 0 1 .6.141c.877.321.992.244.483-.3a3.718 3.718 0 0 1-.789-3.808l.215-.617.84.836a10.345 10.345 0 0 0 6.056 2.984l.636.077-.038-.63a3.684 3.684 0 0 1 2.481-3.7 4.345 4.345 0 0 1 2.228-.052 5.19 5.19 0 0 1 1.081.566l.623.426.687-.219a6.976 6.976 0 0 0 1.12-.437c.216-.115.407-.179.407-.141a3.756 3.756 0 0 1-.865 1.376c-.535.579-.382.63.7.244.645-.216.659-.216.531.029z" fill="#333"/>
</svg>
