<svg xmlns="http://www.w3.org/2000/svg" viewBox="0 0 32 64">
  <path d="M16 0a16 16 0 1 0 16 16A16 16 0 0 0 16 0zm8.987 12.881C23.972 18.6 18.3 23.436 16.6 24.541s-3.26-.442-3.824-1.613c-.646-1.335-2.581-8.571-3.088-9.171s-2.028.6-2.028.6l-.738-.968S10.009 9.7 12.359 9.24c2.491-.489 2.488 3.826 3.087 6.221.58 2.317.969 3.643 1.475 3.643s1.475-1.292 2.535-3.273-.045-3.734-2.12-2.489c.83-4.978 8.664-6.175 7.651-.461z" fill="#adadad"/>
  <path d="M16 32a16 16 0 1 0 16 16 16 16 0 0 0-16-16zm8.987 12.881C23.972 50.6 18.3 55.438 16.6 56.544s-3.26-.442-3.824-1.613c-.646-1.335-2.581-8.571-3.088-9.171s-2.028.6-2.028.6l-.738-.968s3.088-3.688 5.438-4.149c2.491-.489 2.488 3.826 3.087 6.221.58 2.317.969 3.643 1.475 3.643s1.475-1.292 2.535-3.273-.045-3.734-2.12-2.489c.829-4.978 8.663-6.176 7.65-.462z" fill="#333"/>
</svg>
