<svg id="wordpress" xmlns="http://www.w3.org/2000/svg" viewBox="0 0 32 64">
  <path fill="#adadad" d="M6.981 12.244c-.025-.069-.031-.187-.112-.194-.1-.006-.106.119-.138.194a9.555 9.555 0 0 0-.713 4.4 9.838 9.838 0 0 0 3.663 7.119 8.032 8.032 0 0 0 1.9 1.194h.019v-.019c-.037-.112-.062-.225-.106-.331q-2.26-6.179-4.513-12.363zM22.263 13.331c-.194-.4-.431-.775-.663-1.156a4.192 4.192 0 0 1-.6-1.394 1.765 1.765 0 0 1 1.544-2.15c.044-.006.094 0 .125-.05 0-.075-.062-.106-.112-.138a9.863 9.863 0 0 0-7.744-2.362 9.756 9.756 0 0 0-5.607 2.588 9.981 9.981 0 0 0-1.412 1.625c-.038.05-.094.1-.069.162.031.081.119.05.188.05.187.006.375 0 .562.006.806.013 1.606-.075 2.406-.106.313-.013.481.119.506.369.019.231-.144.406-.437.444-.237.031-.481.05-.725.075-.344.031-.344.031-.237.362l3.413 10.15c.025.075.031.169.119.219a.28.28 0 0 0 .1-.181q1.012-3.038 2.025-6.069a.465.465 0 0 0 .019-.319 542.215 542.215 0 0 1-1.444-3.962.278.278 0 0 0-.281-.194q-.431-.028-.862-.094a.4.4 0 0 1 .063-.794.693.693 0 0 1 .162.006c1.094.063 2.181.131 3.275.094.625-.025 1.244-.069 1.869-.094a.381.381 0 0 1 .444.35.4.4 0 0 1-.375.45c-.256.037-.513.056-.769.081-.363.038-.363.031-.25.369q1.688 5.016 3.375 10.037a.5.5 0 0 0 .156.237c.025-.056.05-.1.063-.137.5-1.669 1.006-3.331 1.487-5.006a4.74 4.74 0 0 0-.314-3.468z"/>
  <path fill="#adadad" d="M16.519 17.775c-.094-.263-.194-.525-.3-.812a.56.56 0 0 0-.156.281c-.25.712-.494 1.431-.737 2.15q-1.012 2.953-2.038 5.913c-.062.188-.094.306.163.375a10.117 10.117 0 0 0 5.638-.15c.188-.062.219-.138.15-.319-.914-2.476-1.814-4.957-2.72-7.438z"/>
  <path fill="#adadad" d="M16 0a16 16 0 1 0 16 16A16 16 0 0 0 16 0zm-.031 27.138a11.131 11.131 0 1 1 11.175-11.119 11.143 11.143 0 0 1-11.175 11.119z"/>
  <path fill="#adadad" d="M21.194 24.225a.715.715 0 0 0-.087.338c1.344-.325 3.694-3.2 4.406-5.412a9.987 9.987 0 0 0-.638-7.812.111.111 0 0 0-.05.131 8.4 8.4 0 0 1-.487 3.706q-1.566 4.524-3.144 9.049z"/>
  <path fill="#333" d="M6.981 44.246c-.025-.069-.031-.187-.112-.194-.1-.006-.106.119-.138.194a9.555 9.555 0 0 0-.713 4.4 9.838 9.838 0 0 0 3.663 7.119 8.032 8.032 0 0 0 1.9 1.194h.019v-.019c-.037-.112-.062-.225-.106-.331q-2.26-6.178-4.513-12.363zM22.263 45.334c-.194-.4-.431-.775-.663-1.156a4.192 4.192 0 0 1-.6-1.394 1.765 1.765 0 0 1 1.544-2.15c.044-.006.094 0 .125-.05 0-.075-.062-.106-.112-.138a9.863 9.863 0 0 0-7.744-2.362 9.756 9.756 0 0 0-5.606 2.588A9.981 9.981 0 0 0 7.794 42.3c-.038.05-.094.1-.069.162.031.081.119.05.188.05.187.006.375 0 .562.006.806.013 1.606-.075 2.406-.106.313-.013.481.119.506.369.019.231-.144.406-.437.444-.237.031-.481.05-.725.075-.344.031-.344.031-.237.362l3.413 10.15c.025.075.031.169.119.219a.28.28 0 0 0 .1-.181q1.012-3.038 2.025-6.069a.465.465 0 0 0 .019-.319A542.215 542.215 0 0 1 14.22 43.5a.278.278 0 0 0-.281-.194q-.431-.028-.862-.094a.4.4 0 0 1 .063-.794.693.693 0 0 1 .162.006c1.094.063 2.181.131 3.275.094.625-.025 1.244-.069 1.869-.094a.381.381 0 0 1 .444.35.4.4 0 0 1-.375.45c-.256.037-.513.056-.769.081-.363.038-.363.031-.25.369q1.688 5.016 3.375 10.037a.5.5 0 0 0 .156.237c.025-.056.05-.1.063-.137.5-1.669 1.006-3.331 1.487-5.006a4.74 4.74 0 0 0-.314-3.471z"/>
  <path fill="#333" d="M16.519 49.778c-.094-.263-.194-.525-.3-.812a.56.56 0 0 0-.156.281c-.25.712-.494 1.431-.737 2.15q-1.012 2.953-2.038 5.913c-.062.188-.094.306.163.375a10.117 10.117 0 0 0 5.638-.15c.188-.062.219-.138.15-.319-.914-2.476-1.814-4.957-2.72-7.438z"/>
  <path fill="#333" d="M16 32a16 16 0 1 0 16 16 16 16 0 0 0-16-16zm-.031 27.14a11.131 11.131 0 1 1 11.175-11.119A11.143 11.143 0 0 1 15.969 59.14z"/>
  <path fill="#333" d="M21.194 56.227a.715.715 0 0 0-.087.338c1.344-.325 3.694-3.2 4.406-5.412a9.987 9.987 0 0 0-.638-7.812.111.111 0 0 0-.05.131 8.4 8.4 0 0 1-.487 3.706q-1.566 4.528-3.144 9.049z"/>
</svg>
