<svg enable-background="new 0 0 32 64" viewBox="0 0 32 64" xmlns="http://www.w3.org/2000/svg"><path d="m14.4 18.4 4.1-2.4-4.1-2.4z" fill="#adadad"/><path d="m16 0c-8.8 0-16 7.2-16 16s7.2 16 16 16 16-7.2 16-16-7.2-16-16-16zm7.7 19.9c-.2.7-.7 1.2-1.4 1.4-1.3.3-6.3.3-6.3.3s-5 0-6.3-.3c-.7-.2-1.2-.7-1.4-1.4-.3-1.3-.3-3.9-.3-3.9s0-2.6.3-3.9c.2-.7.7-1.2 1.4-1.4 1.2-.3 6.3-.3 6.3-.3s5 0 6.3.3c.7.2 1.2.7 1.4 1.4.3 1.3.3 3.9.3 3.9s0 2.6-.3 3.9z" fill="#adadad"/><g fill="#333"><path d="m14.4 50.4 4.1-2.4-4.1-2.4z"/><path d="m16 32c-8.8 0-16 7.2-16 16s7.2 16 16 16 16-7.2 16-16-7.2-16-16-16zm7.7 19.9c-.2.7-.7 1.2-1.4 1.4-1.3.3-6.3.3-6.3.3s-5 0-6.3-.3c-.7-.2-1.2-.7-1.4-1.4-.3-1.3-.3-3.9-.3-3.9s0-2.6.3-3.9c.2-.7.7-1.2 1.4-1.4 1.2-.3 6.3-.3 6.3-.3s5 0 6.3.3c.7.2 1.2.7 1.4 1.4.3 1.3.3 3.9.3 3.9s0 2.6-.3 3.9z"/></g></svg>