<?xml version="1.0" encoding="utf-8"?>
<svg version="1.1" id="vlid_user" xmlns="http://www.w3.org/2000/svg" xmlns:xlink="http://www.w3.org/1999/xlink" x="0px" y="0px"
	 viewBox="0 0 32 32" style="enable-background:new 0 0 32 32;" xml:space="preserve">
<g>
	<polygon fill="#60A227" points="23.3,20.7 23.3,20.7 18.5,25.5 13.9,21.2 10.7,24.4 14.3,27.9 14.3,27.9 18.5,32 22.6,27.9 22.6,27.9 
		31.6,18.7 28.4,15.5 	"/>
	<path fill="#60A227" d="M24.4,27.9h3.8v-1.1c0-1,0-1.9-0.1-2.6L24.4,27.9z"/>
	<path fill="#60A227" d="M9.8,25.3l-1-0.9l0.9-0.9l3.2-3.2l0.9-0.9l0.9,0.9l3.7,3.5l3.3-3.4c-2.7-0.8-4.5-1.9-3.1-4.4
		c5.5-10.5,1.5-16-4.3-16C8.4,0,4.5,5.7,10,15.9c1.9,3.4-2,4.2-5.9,5.1c-3.6,0.8-3.7,2.6-3.7,5.7v1.2h12L9.8,25.3z"/>
</g>
</svg>
