<?xml version="1.0" encoding="utf-8"?>
<svg version="1.1" id="skype" xmlns="http://www.w3.org/2000/svg" xmlns:xlink="http://www.w3.org/1999/xlink" x="0px" y="0px"
	 viewBox="0 0 56.7 56.7" style="enable-background:new 0 0 56.7 56.7;" xml:space="preserve">
<path fill="#666" d="M51.5,34.8c0.4-1.6,0.5-3.3,0.5-5c0-13-10.5-23.5-23.4-23.5c-1.4,0-2.7,0.1-4,0.3c-2.1-1.3-4.6-2.1-7.2-2.1
	c-7.5,0-13.6,6.1-13.6,13.6c0,2.5,0.7,4.9,1.9,6.9c-0.3,1.5-0.5,3.1-0.5,4.7c0,12.9,10.5,23.4,23.4,23.4c1.5,0,2.9-0.1,4.3-0.4
	c1.9,1,4.1,1.6,6.4,1.6c7.5,0,13.6-6.1,13.6-13.6C52.9,38.7,52.4,36.6,51.5,34.8z M40.6,41c-1.1,1.5-2.7,2.7-4.8,3.6
	c-2.1,0.9-4.5,1.3-7.3,1.3c-3.4,0-6.2-0.6-8.4-1.8c-1.6-0.8-2.9-2-3.9-3.4s-1.5-2.9-1.5-4.2c0-0.9,0.3-1.6,1-2.2
	c0.6-0.6,1.5-0.9,2.4-0.9c0.8,0,1.5,0.2,2.1,0.7c0.5,0.5,1,1.1,1.4,2c0.4,1,0.9,1.8,1.3,2.4c0.5,0.6,1.1,1.1,2,1.5s2,0.6,3.4,0.6
	c1.9,0,3.5-0.4,4.7-1.2s1.7-1.8,1.7-2.9c0-0.9-0.3-1.7-0.9-2.2c-0.6-0.6-1.5-1.1-2.5-1.4c-1.1-0.3-2.5-0.7-4.3-1.1
	c-2.4-0.5-4.5-1.1-6.1-1.8c-1.7-0.7-3-1.7-4-2.9c-1-1.3-1.5-2.8-1.5-4.7c0-1.8,0.5-3.4,1.6-4.7c1-1.4,2.6-2.4,4.5-3.2
	c1.9-0.7,4.3-1.1,6.9-1.1c2.1,0,3.9,0.2,5.5,0.7c1.5,0.5,2.8,1.1,3.9,1.9c1,0.8,1.8,1.7,2.3,2.6s0.7,1.8,0.7,2.7
	c0,0.8-0.3,1.6-1,2.3c-0.6,0.7-1.5,1-2.4,1s-1.5-0.2-2-0.6c-0.4-0.4-0.9-1-1.4-1.9c-0.6-1.1-1.3-2-2.1-2.6c-0.8-0.6-2.1-0.9-3.9-0.9
	c-1.7,0-3,0.3-4.1,1c-1,0.6-1.5,1.4-1.5,2.2c0,0.5,0.2,1,0.5,1.4s0.8,0.8,1.4,1.1c0.6,0.3,1.3,0.6,1.9,0.7c0.6,0.2,1.7,0.4,3.2,0.8
	c1.9,0.4,3.6,0.9,5.2,1.4s2.9,1.1,4,1.8c1.1,0.7,2,1.7,2.6,2.8s1,2.5,1,4.1C42.3,37.7,41.7,39.4,40.6,41z"/>
</svg>
