<svg id="mojeID" xmlns="http://www.w3.org/2000/svg" viewBox="0 0 522.7 148.5">
  <path fill="#868686" d="M464.5 1.4H417v67.3c7.9-5.7 16-10.3 24.1-14.1V25.5h23.4c18.8 0 34.1 15.3 34.1 34.1s-15.2 34.1-34.1 34.1h-23.4v-21c0-.6-.5-.6-.8-.4-6 4.1-17.2 13.4-23.3 21.8v23.8h47.5c32.2 0 58.2-26.1 58.2-58.2 0-32.2-26.1-58.3-58.2-58.3z"/>
  <linearGradient id="SVGID_1_" gradientUnits="userSpaceOnUse" x1="435.148" y1="60.274" x2="409.361" y2="4.974">
    <stop offset=".006" stop-color="#636362"/>
    <stop offset=".198" stop-color="#767676"/>
    <stop offset=".393" stop-color="#868686"/>
  </linearGradient>
  <path fill="url(#SVGID_1_)" d="M441.1 54.6L417 68.8V1.4l24.1 24.1z"/>
  <linearGradient id="SVGID_2_" gradientUnits="userSpaceOnUse" x1="406.67" y1="106.828" x2="357.483" y2="48.209">
    <stop offset="0" stop-color="#df8200"/>
    <stop offset=".392" stop-color="#f0a800"/>
    <stop offset=".714" stop-color="#ffcb00"/>
    <stop offset="1" stop-color="#ffcb00"/>
  </linearGradient>
  <path fill="url(#SVGID_2_)" d="M370.5 37.3h23.1v80.5h-23.1z"/>
  <linearGradient id="SVGID_3_" gradientUnits="userSpaceOnUse" x1="370.518" y1="79.552" x2="488.49" y2="79.552">
    <stop offset="0" stop-color="#fcc200"/>
    <stop offset="1" stop-color="#ffcb00"/>
  </linearGradient>
  <path d="M488.5 43.8c0-.6-.2-1.3-.7-1.8-.5-.5-1.3-.8-2.9-.7-35.5 3.4-86.4 24-114.4 76.4h23.1c24.5-43.2 60.5-62.7 93-71.8 1.5-.4 1.9-1.3 1.9-2.1z" fill="url(#SVGID_3_)"/>
  <g>
    <path fill="#868686" d="M22.2 37v10.1c5.1-8.9 11.9-12.9 22.2-12.9 10.5 0 18.2 4.7 22 13.4 5.4-9.3 13.1-13.4 24.4-13.4 8.2 0 15 2.6 19.6 7.5 4.9 5.2 6.5 10.8 6.5 23.2v52.9H94.6V69.2c0-11-4-16.2-12.4-16.2-8.2 0-12.9 5.9-12.9 16.2v48.7H47.1v-48c0-11.2-4.2-16.9-12.2-16.9-8.4 0-12.7 5.9-12.7 16.9v48H0V37h22.2zM217.4 78.2c0 23.7-19.4 42.4-44.2 42.4-25.5 0-43.8-18-43.8-43.1 0-25.5 18.2-43.3 44.2-43.3 25.5 0 43.8 18.5 43.8 44zm-65.6-.7c0 14 8.7 23.4 21.6 23.4 12.7 0 21.6-9.6 21.6-23 0-14.5-8.4-23.7-21.5-23.7-13-.1-21.7 9.4-21.7 23.3zM254.2 114c0 12.2-2.4 20.4-7.7 25.8-5.4 5.8-14.4 8.7-24.7 8.7-1.2 0-3.5 0-5.9-.2v-20.2h3.3c7.5 0 11.9-5.2 11.9-14.1V37h23.1v77zM332.8 90.6l-.4-.1c-3.5 6.5-10.5 10.5-18.7 10.5-11 0-19.2-7-21.1-18.2h63.2c.2-1.6.2-3.8.2-4.4 0-26-18-44.2-43.6-44.2-25.1 0-42.8 17.8-42.8 43.1 0 25.1 18.3 43.3 44 43.3 15.1 0 27.9-7 36.2-19.4l-17-10.6zm-20.3-37.7c11 0 18.7 6.5 20.6 17.1h-40.5c2.1-11 9.3-17.1 19.9-17.1z"/>
  </g>
  <path d="M382.1 0c7.6 0 13.8 6.2 13.8 13.8 0 7.6-6.2 13.8-13.8 13.8-7.6 0-13.8-6.2-13.8-13.8-.1-7.6 6.1-13.8 13.8-13.8z" fill="#ffcb00"/>
  <path fill="#868686" d="M242.6 0c7.6 0 13.8 6.2 13.8 13.8 0 7.6-6.2 13.8-13.8 13.8-7.6 0-13.8-6.2-13.8-13.8C228.8 6.2 235 0 242.6 0z"/>
</svg>
